<svg width="20" height="19" viewBox="0 0 20 19" fill="none" xmlns="http://www.w3.org/2000/svg">
<path d="M15.56 19C15.4001 19.0006 15.2423 18.9629 15.1 18.89L10 16.22L4.9 18.89C4.56214 19.0676 4.1526 19.0374 3.84443 18.8122C3.53626 18.5869 3.38323 18.2058 3.45 17.83L4.45 12.2L0.330002 8.19996C0.0680582 7.93856 -0.0281137 7.55387 0.0800019 7.19996C0.198246 6.83738 0.512425 6.57363 0.890002 6.51996L6.59 5.68996L9.1 0.55996C9.26709 0.214969 9.61668 -0.00415039 10 -0.00415039C10.3833 -0.00415039 10.7329 0.214969 10.9 0.55996L13.44 5.67996L19.14 6.50996C19.5176 6.56363 19.8318 6.82738 19.95 7.18996C20.0581 7.54387 19.9619 7.92856 19.7 8.18996L15.58 12.19L16.58 17.82C16.6529 18.2028 16.4968 18.593 16.18 18.82C15.9989 18.9469 15.7809 19.0102 15.56 19Z" fill="#2E4FD7"/>
</svg>
