<svg width="24" height="22" viewBox="0 0 24 22" fill="none" xmlns="http://www.w3.org/2000/svg">
<path d="M23.6 0.200001C23.4 7.59959e-07 23 0 22.7 0L17 1.7V21.8L23.3 20C23.7 19.9 24 19.5 24 19V1C24 0.7 23.9 0.400001 23.6 0.200001Z" fill="#F46953"/>
<path d="M15 1.69995L9 0.199951V20.2999L15 21.7999V1.69995Z" fill="#46BA71"/>
<path d="M7 0.199951L0.700001 1.99995C0.300001 2.19995 0 2.59995 0 2.99995V21C0 21.2999 0.0999996 21.5999 0.4 21.7999C0.6 21.9 0.8 22 1 22H1.3L7 20.2999V0.199951Z" fill="#2E4FD7"/>
</svg>
